<svg width="26" height="26" viewBox="0 0 26 26" fill="none" xmlns="http://www.w3.org/2000/svg">
<path d="M17.3036 20.9352C17.3036 21.0427 17.4242 21.1287 17.5762 21.1287C17.7492 21.1448 17.8698 21.0588 17.8698 20.9352C17.8698 20.8276 17.7492 20.7416 17.5972 20.7416C17.4399 20.7255 17.3036 20.8115 17.3036 20.9352ZM18.9339 20.6932C18.9706 20.8008 18.8657 20.9244 18.7085 20.9567C18.5722 21.0104 18.4149 20.9567 18.3835 20.8491C18.352 20.7416 18.4516 20.618 18.6089 20.5696C18.7452 20.5319 18.8972 20.5857 18.9339 20.6932ZM16.6169 20.6018C16.769 20.6395 16.8738 20.7416 16.8581 20.8653C16.8423 20.9728 16.706 21.0427 16.5488 21.0051C16.3968 20.9674 16.2919 20.8653 16.3077 20.7577C16.3234 20.6556 16.4649 20.5857 16.6169 20.6018ZM13.1677 0C20.4383 0 26 5.6612 26 13.1181C26 19.0804 22.3411 24.1824 17.1149 25.9781C16.444 26.1017 16.2081 25.677 16.2081 25.3276C16.2081 24.9942 16.2238 23.1556 16.2238 22.0265C16.2238 22.0265 19.8931 22.833 20.6637 20.4244C20.6637 20.4244 21.2613 18.8599 22.121 18.4567C22.121 18.4567 23.3214 17.6126 22.0371 17.6288C22.0371 17.6288 20.7319 17.7363 20.0137 19.0158C18.8657 21.0911 16.9419 20.4943 16.1923 20.1395C16.0718 19.2793 15.731 18.6825 15.3536 18.3277C18.2839 17.9943 21.2403 17.5589 21.2403 12.3869C21.2403 10.9084 20.8419 10.1665 20.0032 9.22029C20.1395 8.87083 20.5851 7.42999 19.8669 5.56981C18.7714 5.22035 16.25 7.0214 16.25 7.0214C15.2016 6.72033 14.0746 6.56441 12.9581 6.56441C11.8415 6.56441 10.7145 6.72033 9.66613 7.0214C9.66613 7.0214 7.14476 5.21497 6.04919 5.56981C5.33105 7.43537 5.77661 8.87083 5.9129 9.22029C5.07419 10.1719 4.56048 10.9138 4.56048 12.3869C4.56048 17.575 7.64798 17.989 10.5782 18.3277C10.096 18.7524 9.6871 19.5588 9.6871 20.8223C9.6871 22.6341 9.70282 24.876 9.70282 25.3168C9.70282 25.6663 9.46169 26.091 8.79597 25.9673C3.55403 24.1824 7.7486e-07 19.0804 7.7486e-07 13.1181C7.7486e-07 5.6612 5.89718 0 13.1677 0ZM20.9048 18.5427C20.973 18.5965 20.9573 18.7201 20.8681 18.8223C20.7843 18.9083 20.6637 18.9459 20.5956 18.8761C20.5274 18.8223 20.5431 18.6986 20.6323 18.5965C20.7161 18.5105 20.8367 18.4728 20.9048 18.5427ZM21.471 18.1072C21.5077 18.1771 21.4552 18.2632 21.3504 18.3169C21.2665 18.3707 21.1617 18.3546 21.125 18.2793C21.0883 18.2094 21.1407 18.1234 21.2456 18.0696C21.3504 18.0374 21.4343 18.0535 21.471 18.1072ZM19.7726 20.0212C19.8565 20.0911 19.825 20.2524 19.7044 20.3545C19.5839 20.4782 19.4319 20.4943 19.3637 20.4083C19.2956 20.3384 19.327 20.1771 19.4319 20.075C19.5472 19.9513 19.7044 19.9352 19.7726 20.0212ZM20.3702 19.2309C20.454 19.2846 20.454 19.4244 20.3702 19.5481C20.2863 19.6717 20.1448 19.7255 20.0766 19.6717C19.9927 19.6018 19.9927 19.4621 20.0766 19.3384C20.15 19.2148 20.2863 19.161 20.3702 19.2309Z" fill="current-color"/>
</svg>
